<?xml version="1.0" encoding="UTF-8" standalone="no"?>
<svg
   height="16px"
   viewBox="0 0 16 16"
   width="16px"
   version="1.1"
   id="svg8"
   sodipodi:docname="avatar-map-marker-hull-symbolic.svg"
   inkscape:version="1.2 (dc2aedaf03, 2022-05-15)"
   xmlns:inkscape="http://www.inkscape.org/namespaces/inkscape"
   xmlns:sodipodi="http://sodipodi.sourceforge.net/DTD/sodipodi-0.dtd"
   xmlns="http://www.w3.org/2000/svg"
   xmlns:svg="http://www.w3.org/2000/svg">
  <defs
     id="defs12" />
  <sodipodi:namedview
     id="namedview10"
     pagecolor="#ffffff"
     bordercolor="#666666"
     borderopacity="1.0"
     inkscape:showpageshadow="2"
     inkscape:pageopacity="0.0"
     inkscape:pagecheckerboard="0"
     inkscape:deskcolor="#d1d1d1"
     showgrid="false"
     inkscape:zoom="37.0625"
     inkscape:cx="8.0134907"
     inkscape:cy="8.0134907"
     inkscape:window-width="1920"
     inkscape:window-height="1011"
     inkscape:window-x="0"
     inkscape:window-y="0"
     inkscape:window-maximized="1"
     inkscape:current-layer="svg8" />
  <path
     id="path2"
     style="fill:#222222"
     d="M 8 0 C 4.4101632 0 1.5 2.9101632 1.5 6.5 C 1.5 7.3165592 1.6528426 8.0967436 1.9277344 8.8164062 C 2.0416573 9.1483715 2.2171523 9.5013429 2.4414062 9.8691406 C 2.4945337 9.9562746 2.551079 10.044174 2.609375 10.132812 C 3.8980227 12.0922 6.3995121 14.395605 8 15.996094 C 9.5925223 14.403571 12.076879 12.112209 13.371094 10.160156 C 13.376968 10.151296 13.3848 10.143612 13.390625 10.134766 C 13.411474 10.103911 13.430842 10.072245 13.451172 10.041016 C 13.462095 10.02401 13.47169 10.007184 13.482422 9.9902344 C 13.51595 9.9376821 13.549988 9.8855986 13.582031 9.8320312 C 13.585458 9.826302 13.588387 9.8201939 13.591797 9.8144531 C 13.800952 9.4658023 13.963787 9.1319624 14.072266 8.8164062 C 14.347157 8.0964773 14.5 7.3165592 14.5 6.5 C 14.5 2.9101632 11.589836 0 8 0 z " />
</svg>
