<?xml version="1.0" encoding="UTF-8"?>
<svg xmlns="http://www.w3.org/2000/svg" height="16px" viewBox="0 0 16 16" width="16px"><path d="m 8 0 c -3.3125 0 -5.996094 2.683594 -6 6 c 0.003906 0.5625 0.082031 1.121094 0.238281 1.664062 c 0 0.003907 0.003907 0.007813 0.003907 0.011719 c 0 0.007813 0.003906 0.015625 0.003906 0.023438 c 0.777344 2.8125 3.761718 6.304687 5.753906 8.300781 c 1.992188 -1.992188 4.96875 -5.484375 5.75 -8.296875 c 0.003906 -0.011719 0.007812 -0.023437 0.007812 -0.035156 c 0.003907 0 0.003907 -0.003907 0.003907 -0.003907 c 0.15625 -0.542968 0.234375 -1.101562 0.234375 -1.664062 c 0 -3.316406 -2.683594 -6 -5.996094 -6 z m 0 4 c 1.105469 0 2 0.894531 2 2 c 0 1.101562 -0.894531 2 -2 2 s -2 -0.898438 -2 -2 c 0 -1.105469 0.894531 -2 2 -2 z m 0 0" fill="#222222"/></svg>
