<?xml version="1.0" encoding="UTF-8" standalone="no"?>
<svg
   width="22"
   height="16"
   version="1.1"
   id="svg4"
   sodipodi:docname="message-failed-symbolic.svg"
   inkscape:version="1.1.1 (3bf5ae0d25, 2021-09-20, custom)"
   xmlns:inkscape="http://www.inkscape.org/namespaces/inkscape"
   xmlns:sodipodi="http://sodipodi.sourceforge.net/DTD/sodipodi-0.dtd"
   xmlns="http://www.w3.org/2000/svg"
   xmlns:svg="http://www.w3.org/2000/svg">
  <defs
     id="defs8" />
  <sodipodi:namedview
     id="namedview6"
     pagecolor="#505050"
     bordercolor="#eeeeee"
     borderopacity="1"
     inkscape:pageshadow="0"
     inkscape:pageopacity="0"
     inkscape:pagecheckerboard="0"
     showgrid="false"
     inkscape:zoom="44.9375"
     inkscape:cx="5.7301808"
     inkscape:cy="8.945758"
     inkscape:window-width="2560"
     inkscape:window-height="1371"
     inkscape:window-x="0"
     inkscape:window-y="0"
     inkscape:window-maximized="1"
     inkscape:current-layer="svg4" />
  <path
     d="m 11.001732,1 a 7.5000002,7.5000002 0 1 0 0,15 7.5000002,7.5000002 0 0 0 0,-15 z m -0.100714,2.1096429 a 1.0714286,1.0714286 0 0 1 1.172143,1.1046429 v 5.357143 a 1.0714286,1.0714286 0 1 1 -2.1428567,0 v -5.357143 a 1.0714286,1.0714286 0 0 1 0.8367847,-1.0714286 1.0714286,1.0714286 0 0 1 0.133929,-0.033214 z m 0.100714,8.6046431 a 1.0714286,1.0714286 0 1 1 0,2.142857 1.0714286,1.0714286 0 0 1 0,-2.142857 z"
     fill="#474747"
     id="path2"
     style="stroke-width:1" />
</svg>
