<?xml version="1.0" encoding="UTF-8"?>
<svg height="128px" viewBox="0 0 128 128" width="128px" xmlns="http://www.w3.org/2000/svg" xmlns:xlink="http://www.w3.org/1999/xlink">
    <linearGradient id="a" gradientUnits="userSpaceOnUse" x1="18.85013" x2="109.149948" y1="94.5829435" y2="94.5829435">
        <stop offset="0.0037594" stop-color="#c0bfbc"/>
        <stop offset="0.0410132" stop-color="#deddda"/>
        <stop offset="0.0776136" stop-color="#deddda"/>
        <stop offset="0.328044" stop-color="#9a9996"/>
        <stop offset="0.5" stop-color="#c0bfbc"/>
        <stop offset="0.5" stop-color="#77767b"/>
        <stop offset="0.607334" stop-color="#9a9996"/>
        <stop offset="0.795407" stop-color="#9a9996"/>
        <stop offset="0.924628" stop-color="#9a9996"/>
        <stop offset="0.9634" stop-color="#deddda"/>
        <stop offset="1" stop-color="#9a9996"/>
    </linearGradient>
    <path d="m 64.160156 8.308594 c -1.917968 -0.003906 -3.859375 0.992187 -5.019531 3.003906 l -39.511719 76.167969 c -0.472656 0.816406 -0.675781 1.671875 -0.722656 2.519531 h -0.058594 v 3.394531 c 0.003906 3.1875 2.964844 6.605469 6.152344 6.605469 h 22 l 15.128906 17.25 c 0.242188 0.265625 0.535156 0.476562 0.859375 0.621094 c 0.320313 0.140625 0.667969 0.214844 1.019531 0.214844 c 0.347657 0 0.695313 -0.074219 1.015626 -0.214844 c 0.320312 -0.144532 0.613281 -0.355469 0.859374 -0.621094 l 15.117188 -17.25 h 22 c 3.1875 0 6.152344 -3.417969 6.152344 -6.605469 v -2.957031 c 0 -0.023438 -0.003906 -0.042969 0 -0.0625 v -0.375 h -0.046875 c -0.046875 -0.847656 -0.25 -1.703125 -0.71875 -2.519531 l -39.386719 -76.167969 c -1.042969 -1.992188 -2.925781 -2.996094 -4.839844 -3.003906 z m 0 0" fill="url(#a)"/>
    <path d="m 104 8 l -39.828125 0.308594 h -0.011719 c -0.003906 0 -0.007812 0 -0.015625 0 l -0.144531 0.003906 v 0.007812 c -1.863281 0.050782 -3.734375 1.035157 -4.859375 2.992188 l -39.511719 76.167969 c -2.195312 3.785156 0.546875 8.511719 4.929688 8.511719 h 23.445312 l 15.996094 -55.992188 l 16 55.992188 v 0.007812 l 23.453125 -0.007812 h 0.546875 c 2.855469 0 5.15625 -2.070313 5.15625 -4.648438 v -78.695312 c 0 -2.574219 -2.300781 -4.671876 -5.15625 -4.648438 z m 0 0" fill="#f6f5f4"/>
    <g fill="#deddda">
        <path d="m 74 16 h 28 c 1.105469 0 2 0.894531 2 2 s -0.894531 2 -2 2 h -28 c -1.105469 0 -2 -0.894531 -2 -2 s 0.894531 -2 2 -2 z m 0 0"/>
        <path d="m 78 24 h 24 c 1.105469 0 2 0.894531 2 2 s -0.894531 2 -2 2 h -24 c -1.105469 0 -2 -0.894531 -2 -2 s 0.894531 -2 2 -2 z m 0 0"/>
        <path d="m 82 32 h 20 c 1.105469 0 2 0.894531 2 2 s -0.894531 2 -2 2 h -20 c -1.105469 0 -2 -0.894531 -2 -2 s 0.894531 -2 2 -2 z m 0 0"/>
        <path d="m 85.667969 40 h 16.664062 c 0.921875 0 1.667969 0.894531 1.667969 2 s -0.746094 2 -1.667969 2 h -16.664062 c -0.921875 0 -1.667969 -0.894531 -1.667969 -2 s 0.746094 -2 1.667969 -2 z m 0 0"/>
    </g>
    <path d="m 64 8.3125 v 0.007812 c -1.863281 0.050782 -3.734375 1.035157 -4.859375 2.992188 l -39.511719 76.167969 c -2.195312 3.785156 0.546875 8.511719 4.929688 8.511719 h 23.445312 l 15.996094 -55.992188 l 0.070312 0.238281 v -31.925781 z m 0 0" fill="#f6f5f4"/>
    <path d="m 89.332031 48 h 13.335938 c 0.734375 0 1.332031 0.894531 1.332031 2 s -0.597656 2 -1.332031 2 h -13.335938 c -0.734375 0 -1.332031 -0.894531 -1.332031 -2 s 0.597656 -2 1.332031 -2 z m 0 0" fill="#deddda"/>
</svg>
